<?xml version="1.0" encoding="UTF-8"?>
<!DOCTYPE svg PUBLIC "-//W3C//DTD SVG 1.1//EN" "http://www.w3.org/Graphics/SVG/1.1/DTD/svg11.dtd">
<svg xmlns="http://www.w3.org/2000/svg" version="1.1" width="200px" height="200px" style="shape-rendering:geometricPrecision; text-rendering:geometricPrecision; image-rendering:optimizeQuality; fill-rule:evenodd; clip-rule:evenodd" xmlns:xlink="http://www.w3.org/1999/xlink">
<g><path style="opacity:1" fill="#293d23" d="M 86.5,9.5 C 103.697,8.47613 120.363,10.8095 136.5,16.5C 137.287,18.1042 138.62,18.7709 140.5,18.5C 141.492,18.3284 142.158,18.6618 142.5,19.5C 143.659,21.2503 145.326,22.2503 147.5,22.5C 148.802,24.8218 150.802,26.1551 153.5,26.5C 155.854,29.8515 158.854,32.5181 162.5,34.5C 166.544,37.5425 169.877,41.2092 172.5,45.5C 172.273,47.9328 173.273,49.5994 175.5,50.5C 176.338,50.8417 176.672,51.5084 176.5,52.5C 177.079,55.3311 178.412,57.6644 180.5,59.5C 181.338,59.8417 181.672,60.5084 181.5,61.5C 181.229,63.3797 181.896,64.713 183.5,65.5C 183.5,65.8333 183.5,66.1667 183.5,66.5C 185.433,77.9367 187.1,89.4367 188.5,101C 187.622,106.463 187.288,111.963 187.5,117.5C 186.685,118.429 185.852,119.429 185,120.5C 180.863,139.966 171.03,155.8 155.5,168C 131.82,186.171 105.487,191.838 76.5,185C 74.2773,182.556 71.6107,181.89 68.5,183C 55.7432,176.202 43.9099,168.036 33,158.5C 31.7695,155.268 29.7695,152.601 27,150.5C 22.0135,142.323 17.5135,133.989 13.5,125.5C 12.596,124.791 12.2627,123.791 12.5,122.5C 11.7043,115.185 11.0376,107.851 10.5,100.5C 11.1676,92.1621 11.8343,83.8288 12.5,75.5C 12.595,73.2143 13.2616,71.2143 14.5,69.5C 16.4174,66.2826 18.2507,62.9492 20,59.5C 20.49,58.2068 20.6567,56.8734 20.5,55.5C 21.9063,55.0269 22.573,54.0269 22.5,52.5C 25.2226,49.4137 27.7226,46.0804 30,42.5C 36.0886,36.2423 42.2552,30.2423 48.5,24.5C 48.9731,23.0937 49.9731,22.427 51.5,22.5C 56.3195,20.9259 60.6528,18.5926 64.5,15.5C 68.9417,15.2685 72.9417,13.9352 76.5,11.5C 79.5443,9.98864 82.8776,9.32198 86.5,9.5 Z"/></g>
<g><path style="opacity:0.524" fill="#a84f16" d="M 86.5,9.5 C 99.8537,7.69641 113.187,8.52974 126.5,12C 130.061,13.2321 133.394,14.7321 136.5,16.5C 120.363,10.8095 103.697,8.47613 86.5,9.5 Z"/></g>
<g><path style="opacity:0.384" fill="#bb5212" d="M 76.5,11.5 C 72.9417,13.9352 68.9417,15.2685 64.5,15.5C 68.0845,13.1939 72.0845,11.8606 76.5,11.5 Z"/></g>
<g><path style="opacity:0.784" fill="#a54f16" d="M 136.5,16.5 C 138.153,16.6596 139.486,17.3263 140.5,18.5C 138.62,18.7709 137.287,18.1042 136.5,16.5 Z"/></g>
<g><path style="opacity:1" fill="#c25310" d="M 87.5,18.5 C 104.556,18.6598 120.889,21.8265 136.5,28C 143.573,34.285 150.74,40.4516 158,46.5C 160.777,49.718 162.777,53.3847 164,57.5C 165.815,59.4049 167.815,61.0716 170,62.5C 182.139,92.0989 179.806,120.432 163,147.5C 141.704,170.266 115.538,179.766 84.5,176C 54.0272,168.874 33.5272,150.374 23,120.5C 14.6976,77.2775 29.8643,45.4442 68.5,25C 75.1177,23.2951 81.451,21.1285 87.5,18.5 Z"/></g>
<g><path style="opacity:0.451" fill="#b75113" d="M 64.5,15.5 C 60.6528,18.5926 56.3195,20.9259 51.5,22.5C 55.3472,19.4074 59.6805,17.0741 64.5,15.5 Z"/></g>
<g><path style="opacity:0.055" fill="#b65113" d="M 142.5,19.5 C 144.674,19.7497 146.341,20.7497 147.5,22.5C 145.326,22.2503 143.659,21.2503 142.5,19.5 Z"/></g>
<g><path style="opacity:0.318" fill="#b35113" d="M 147.5,22.5 C 149.853,23.3403 151.853,24.6736 153.5,26.5C 150.802,26.1551 148.802,24.8218 147.5,22.5 Z"/></g>
<g><path style="opacity:0.067" fill="#ab4f15" d="M 153.5,26.5 C 157.12,28.4528 160.12,31.1195 162.5,34.5C 158.854,32.5181 155.854,29.8515 153.5,26.5 Z"/></g>
<g><path style="opacity:1" fill="#b65113" d="M 48.5,24.5 C 42.2552,30.2423 36.0886,36.2423 30,42.5C 27.7226,46.0804 25.2226,49.4137 22.5,52.5C 28.7354,40.9304 37.4021,31.5971 48.5,24.5 Z"/></g>
<g><path style="opacity:1" fill="#273d23" d="M 85.5,36.5 C 95.2199,36.1924 104.887,36.5257 114.5,37.5C 116.509,42.0019 115.009,44.3352 110,44.5C 109.257,46.4406 109.424,48.2739 110.5,50C 116.833,50.3333 123.167,50.6667 129.5,51C 131.658,52.3117 131.991,53.9783 130.5,56C 128.285,57.0438 125.952,57.7105 123.5,58C 121.078,59.888 121.078,61.888 123.5,64C 126.167,64.3333 128.833,64.6667 131.5,65C 132.833,66.6667 132.833,68.3333 131.5,70C 129.112,70.3034 126.945,71.1367 125,72.5C 124.333,73.8333 124.333,75.1667 125,76.5C 131.085,77.3117 137.252,77.8117 143.5,78C 144.574,78.7387 145.241,79.7387 145.5,81C 142.876,83.2542 140.542,85.7542 138.5,88.5C 140.262,90.6054 142.428,92.272 145,93.5C 145.711,95.3668 145.211,96.8668 143.5,98C 135.5,98.3333 127.5,98.6667 119.5,99C 118.065,101.267 118.398,103.267 120.5,105C 125.418,105.195 130.251,105.695 135,106.5C 135.667,107.833 135.667,109.167 135,110.5C 133.175,111.103 131.341,111.77 129.5,112.5C 128.515,114.098 128.349,115.765 129,117.5C 132.466,118.202 135.966,118.869 139.5,119.5C 140.631,121.074 140.798,122.741 140,124.5C 127.914,125.488 115.747,125.822 103.5,125.5C 103.442,133.521 103.776,141.521 104.5,149.5C 101.5,149.5 98.5,149.5 95.5,149.5C 95.7312,141.495 96.0645,133.495 96.5,125.5C 84.1622,125.667 71.8288,125.5 59.5,125C 58.0652,122.733 58.3985,120.733 60.5,119C 67.5236,118.831 74.5236,118.331 81.5,117.5C 82.6096,115.504 82.2763,113.671 80.5,112C 75.5821,111.805 70.7488,111.305 66,110.5C 65.3333,109.167 65.3333,107.833 66,106.5C 71.0918,106.105 72.9252,103.605 71.5,99C 66.5,98.6667 61.5,98.3333 56.5,98C 54.3985,96.2672 54.0652,94.2672 55.5,92C 61.1667,91.6667 66.8333,91.3333 72.5,91C 75.3442,87.5267 74.5109,85.0267 70,83.5C 69.3486,81.765 69.5153,80.0983 70.5,78.5C 75.048,77.8076 79.548,77.1409 84,76.5C 84.8632,74.2511 84.3632,72.4178 82.5,71C 77.1667,70.6667 71.8333,70.3333 66.5,70C 65.1667,68.3333 65.1667,66.6667 66.5,65C 72.8333,64.6667 79.1667,64.3333 85.5,64C 88.1667,62 88.1667,60 85.5,58C 80.5,57.6667 75.5,57.3333 70.5,57C 67.967,54.916 67.967,52.916 70.5,51C 76.5,50.6667 82.5,50.3333 88.5,50C 90.6347,45.6503 89.3013,43.317 84.5,43C 83.1443,40.5859 83.4776,38.4193 85.5,36.5 Z"/></g>
<g><path style="opacity:0.929" fill="#a14e16" d="M 172.5,45.5 C 173.89,46.8993 174.89,48.5659 175.5,50.5C 173.273,49.5994 172.273,47.9328 172.5,45.5 Z"/></g>
<g><path style="opacity:0.627" fill="#bd5211" d="M 22.5,52.5 C 22.573,54.0269 21.9063,55.0269 20.5,55.5C 20.427,53.9731 21.0937,52.9731 22.5,52.5 Z"/></g>
<g><path style="opacity:0.461" fill="#b15014" d="M 176.5,52.5 C 178.588,54.3356 179.921,56.6689 180.5,59.5C 178.412,57.6644 177.079,55.3311 176.5,52.5 Z"/></g>
<g><path style="opacity:0.451" fill="#b95212" d="M 20.5,55.5 C 20.6567,56.8734 20.49,58.2068 20,59.5C 18.2507,62.9492 16.4174,66.2826 14.5,69.5C 15.4316,64.311 17.4316,59.6443 20.5,55.5 Z"/></g>
<g><path style="opacity:0.412" fill="#b65113" d="M 181.5,61.5 C 182.674,62.5137 183.34,63.847 183.5,65.5C 181.896,64.713 181.229,63.3797 181.5,61.5 Z"/></g>
<g><path style="opacity:0.732" fill="#bc5212" d="M 183.5,66.5 C 186.392,72.4106 188.225,78.7439 189,85.5C 189.667,94.5 189.667,103.5 189,112.5C 188.802,114.382 188.302,116.048 187.5,117.5C 187.288,111.963 187.622,106.463 188.5,101C 187.1,89.4367 185.433,77.9367 183.5,66.5 Z"/></g>
<g><path style="opacity:0.664" fill="#be5311" d="M 12.5,75.5 C 11.8343,83.8288 11.1676,92.1621 10.5,100.5C 11.0376,107.851 11.7043,115.185 12.5,122.5C 10.0797,114.99 9.07966,107.157 9.5,99C 9.07966,90.8435 10.0797,83.0101 12.5,75.5 Z"/></g>
<g><path style="opacity:0.701" fill="#b95212" d="M 187.5,117.5 C 181.133,148.377 163.467,170.21 134.5,183C 86.7556,198.864 48.9223,186.03 21,144.5C 17.3722,138.583 14.8722,132.25 13.5,125.5C 17.5135,133.989 22.0135,142.323 27,150.5C 29.7695,152.601 31.7695,155.268 33,158.5C 43.9099,168.036 55.7432,176.202 68.5,183C 71.6107,181.89 74.2773,182.556 76.5,185C 105.487,191.838 131.82,186.171 155.5,168C 171.03,155.8 180.863,139.966 185,120.5C 185.852,119.429 186.685,118.429 187.5,117.5 Z"/></g>
</svg>
